# File created by Blade
# Date/Time:  Tue Jan 27 17:27:32 2015
# Frame Rate: 120.000 fps
#------------------------------------------------------
:FULLY-SPECIFIED
:DEGREES
1286
root 3.701096 36.998623 0.780677 5.148014 17.198134 0.047641
Spine 1.346732 12.158709 -4.514708
Head 9.283529 -12.079665 4.150231
LeftShoulder -5.075076 -8.790157 8.844601
LeftArm -6.948853 -21.785008 -50.744165
LeftForeArm 7.965791 0.000000 110.360842
LeftHand -16.861614 0.000000 38.083896
LeftHandThumb1 -26.253704 0.000000 33.147579
RightShoulder -3.921957 -18.789809 3.000519
RightArm 27.898262 -32.239248 53.297791
RightForeArm 182.846055 0.000000 27.907360
RightHand 0.589811 -0.000000 1.146855
RightHandThumb1 -24.326973 -0.000000 -32.862282
LeftUpLeg -6.607673 7.152539 -3.341252
LeftLeg 12.677554 -0.000000 -0.000000
LeftFoot -16.892700 -3.426511 -15.621520
LeftToeBase 13.789995 -0.000000 -0.000000
RightUpLeg -8.000012 -19.565636 -4.306388
RightLeg 23.645345 -0.000000 -0.000000
RightFoot -15.232202 -0.649764 9.809037
RightToeBase -1.611658 -0.000000 0.000000
1287
root 3.702785 37.016990 0.752184 5.269400 16.602145 0.028052
Spine 1.093675 12.692302 -4.684769
Head 9.227508 -12.199711 4.112835
LeftShoulder -5.110777 -8.721149 8.862493
LeftArm -7.205703 -21.807596 -50.630084
LeftForeArm 7.985573 -0.000000 110.544172
LeftHand -16.761122 0.000000 38.204377
LeftHandThumb1 -26.253704 0.000000 33.147579
RightShoulder -3.737669 -18.708312 2.799906
RightArm 28.354091 -32.723647 52.978381
RightForeArm 182.620929 -0.000000 28.165536
RightHand 0.516550 -0.000000 1.072224
RightHandThumb1 -24.326973 -0.000000 -32.862282
LeftUpLeg -6.811890 6.214565 -3.096747
LeftLeg 12.994651 -0.000000 -0.000000
LeftFoot -16.655254 -3.888397 -15.554674
LeftToeBase 13.215402 -0.000000 -0.000000
RightUpLeg -8.031211 -18.404641 -4.253024
RightLeg 23.101937 -0.000000 -0.000000
RightFoot -15.192042 -1.119212 9.961810
RightToeBase -1.279992 -0.000000 0.000000
1288
root 3.683777 37.034145 0.707777 5.525151 15.464478 -0.075672
Spine 0.634533 13.774926 -4.936835
Head 9.007887 -12.259540 4.296455
LeftShoulder -5.125311 -8.718695 8.936675
LeftArm -7.506151 -21.837257 -50.457816
LeftForeArm 7.920570 -0.000000 110.727393
LeftHand -16.750109 -0.000000 38.368479
LeftHandThumb1 -26.253704 0.000000 33.147579
RightShoulder -3.538763 -18.626828 2.638306
RightArm 28.793130 -33.202276 52.668500
RightForeArm 182.541397 -0.000000 28.455394
RightHand 0.491357 -0.000000 1.145719
RightHandThumb1 -24.326973 -0.000000 -32.862282
LeftUpLeg -7.161840 5.886566 -2.791575
LeftLeg 13.240925 -0.000000 -0.000000
LeftFoot -16.513239 -4.654435 -16.017566
LeftToeBase 13.532028 -0.000000 -0.000000
RightUpLeg -8.332182 -16.392033 -4.076091
RightLeg 22.522514 -0.000000 -0.000000
RightFoot -15.156231 -1.798822 10.218959
RightToeBase -0.887283 -0.000000 0.000000
1289
root 3.695539 37.043234 0.689226 5.446587 14.977968 -0.069909
Spine 0.670253 14.228160 -5.015323
Head 8.796644 -12.332053 4.251464
LeftShoulder -5.157023 -8.760579 8.980703
LeftArm -7.734757 -21.824422 -50.407958
LeftForeArm 7.936785 -0.000000 110.845990
LeftHand -16.822798 -0.000000 38.614906
LeftHandThumb1 -26.253704 0.000000 33.147579
RightShoulder -3.301120 -18.520198 2.356331
RightArm 29.227291 -33.621644 52.344221
RightForeArm 182.553846 0.000000 28.755928
RightHand 0.295463 -0.000000 1.273525
RightHandThumb1 -24.326973 -0.000000 -32.862282
LeftUpLeg -7.098032 4.849408 -2.537438
LeftLeg 13.438290 -0.000000 -0.000000
LeftFoot -16.353948 -5.222303 -16.099511
LeftToeBase 13.380530 -0.000000 -0.000000
RightUpLeg -8.088725 -15.436713 -4.152350
RightLeg 21.982418 -0.000000 -0.000000
RightFoot -15.176364 -2.125242 10.370151
RightToeBase -0.520912 -0.000000 0.000000
1290
root 3.716655 37.047266 0.674351 5.410669 15.024985 -0.025100
Spine 0.674595 14.116237 -5.035408
Head 8.656060 -12.390858 4.119212
LeftShoulder -5.209443 -8.742267 8.881481
LeftArm -7.958215 -21.805085 -50.239425
LeftForeArm 7.974461 -0.000000 111.024219
LeftHand -16.798370 -0.000000 38.642681
LeftHandThumb1 -26.253704 0.000000 33.147579
RightShoulder -3.075816 -18.484772 2.023758
RightArm 29.729150 -34.057818 51.970963
RightForeArm 182.469228 0.000000 29.012877
RightHand 0.330161 -0.000000 1.191641
RightHandThumb1 -24.326973 -0.000000 -32.862282
LeftUpLeg -7.127935 3.246534 -2.299994
LeftLeg 13.739373 -0.000000 -0.000000
LeftFoot -16.301378 -5.672596 -16.331578
LeftToeBase 13.165436 -0.000000 -0.000000
RightUpLeg -7.740970 -15.203040 -4.260307
RightLeg 21.384874 -0.000000 -0.000000
RightFoot -15.243972 -2.225544 10.500392
RightToeBase -0.107996 -0.000000 0.000000
